<svg width="33" height="33" viewBox="0 0 33 33" fill="none" xmlns="http://www.w3.org/2000/svg">
<path d="M11.2571 16.5807C11.2571 13.6787 13.6083 11.3256 16.5095 11.3256C19.4106 11.3256 21.763 13.6787 21.763 16.5807C21.763 19.4826 19.4106 21.8357 16.5095 21.8357C13.6083 21.8357 11.2571 19.4826 11.2571 16.5807ZM8.41716 16.5807C8.41716 21.0513 12.0401 24.6753 16.5095 24.6753C20.9788 24.6753 24.6017 21.0513 24.6017 16.5807C24.6017 12.11 20.9788 8.48603 16.5095 8.48603C12.0401 8.48603 8.41716 12.11 8.41716 16.5807ZM23.031 8.16507C23.0308 8.53921 23.1416 8.90499 23.3493 9.21616C23.5569 9.52733 23.8522 9.76991 24.1977 9.91322C24.5432 10.0565 24.9234 10.0942 25.2903 10.0213C25.6572 9.94846 25.9942 9.76843 26.2588 9.50398C26.5234 9.23953 26.7036 8.90254 26.7767 8.53562C26.8499 8.1687 26.8126 7.78833 26.6696 7.44261C26.5266 7.09689 26.2843 6.80136 25.9734 6.59337C25.6625 6.38539 25.2969 6.2743 24.9229 6.27415H24.9221C24.4207 6.27438 23.94 6.47365 23.5854 6.8282C23.2308 7.18274 23.0314 7.66357 23.031 8.16507ZM10.1426 29.4122C8.60615 29.3422 7.77102 29.0862 7.21604 28.8699C6.48026 28.5834 5.95528 28.2421 5.40332 27.6907C4.85137 27.1394 4.5097 26.6148 4.22452 25.8788C4.00817 25.3239 3.75224 24.4883 3.68239 22.9513C3.60599 21.2897 3.59074 20.7905 3.59074 16.5808C3.59074 12.371 3.60725 11.8733 3.68239 10.2102C3.75236 8.6733 4.01019 7.83932 4.22452 7.28279C4.51096 6.5468 4.85212 6.02167 5.40332 5.46955C5.95453 4.91743 6.479 4.57567 7.21604 4.29041C7.77077 4.074 8.60615 3.81799 10.1426 3.74812C11.8038 3.6717 12.3028 3.65644 16.5095 3.65644C20.7161 3.65644 21.2156 3.67296 22.8782 3.74812C24.4146 3.81812 25.2484 4.07602 25.8048 4.29041C26.5405 4.57567 27.0655 4.91819 27.6175 5.46955C28.1694 6.02091 28.5098 6.5468 28.7963 7.28279C29.0126 7.83768 29.2686 8.6733 29.3384 10.2102C29.4148 11.8733 29.4301 12.371 29.4301 16.5808C29.4301 20.7905 29.4148 21.2883 29.3384 22.9513C29.2684 24.4883 29.0112 25.3236 28.7963 25.8788C28.5098 26.6148 28.1687 27.1399 27.6175 27.6907C27.0663 28.2416 26.5405 28.5834 25.8048 28.8699C25.25 29.0863 24.4146 29.3423 22.8782 29.4122C21.217 29.4886 20.718 29.5039 16.5095 29.5039C12.3009 29.5039 11.8033 29.4886 10.1426 29.4122ZM10.0121 0.912117C8.33446 0.988541 7.18805 1.25464 6.18688 1.64432C5.15004 2.04675 4.2723 2.58663 3.39519 3.46261C2.51808 4.33858 1.97974 5.21796 1.57743 6.2551C1.18786 7.25719 0.921841 8.4033 0.845439 10.0815C0.767777 11.7623 0.75 12.2997 0.75 16.5807C0.75 20.8616 0.767777 21.399 0.845439 23.0798C0.921841 24.7581 1.18786 25.9041 1.57743 26.9062C1.97974 27.9427 2.51821 28.8231 3.39519 29.6987C4.27217 30.5743 5.15004 31.1134 6.18688 31.517C7.18994 31.9067 8.33446 32.1728 10.0121 32.2492C11.6934 32.3256 12.2297 32.3447 16.5095 32.3447C20.7892 32.3447 21.3264 32.3269 23.0068 32.2492C24.6846 32.1728 25.8302 31.9067 26.832 31.517C27.8682 31.1134 28.7466 30.5747 29.6237 29.6987C30.5008 28.8227 31.038 27.9427 31.4415 26.9062C31.831 25.9041 32.0983 24.758 32.1735 23.0798C32.2499 21.3978 32.2676 20.8616 32.2676 16.5807C32.2676 12.2997 32.2499 11.7623 32.1735 10.0815C32.0971 8.40317 31.831 7.25656 31.4415 6.2551C31.038 5.21859 30.4994 4.33997 29.6237 3.46261C28.748 2.58525 27.8682 2.04675 26.8333 1.64432C25.8302 1.25464 24.6844 0.98728 23.008 0.912117C21.3277 0.835693 20.7905 0.81665 16.5107 0.81665C12.2309 0.81665 11.6934 0.834432 10.0121 0.912117Z" fill="#BECEE8"/>
</svg>
