<svg width="29" height="26" viewBox="0 0 29 26" fill="none" xmlns="http://www.w3.org/2000/svg">
<path d="M6.7931 25.9686V8.68035H0.782737V25.9686H6.79373H6.7931ZM3.78918 6.32034C5.88468 6.32034 7.18926 4.9928 7.18926 3.33376C7.15004 1.63692 5.88468 0.346436 3.82903 0.346436C1.77197 0.346436 0.428467 1.63692 0.428467 3.33361C0.428467 4.99265 1.73258 6.32019 3.74979 6.32019H3.7887L3.78918 6.32034ZM10.1199 25.9686H16.1298V16.3151C16.1298 15.7991 16.169 15.2817 16.3278 14.9132C16.7621 13.8804 17.751 12.8113 19.4118 12.8113C21.586 12.8113 22.4563 14.3965 22.4563 16.7209V25.9686H28.4661V16.056C28.4661 10.7461 25.5014 8.27504 21.5471 8.27504C18.3052 8.27504 16.8813 10.0074 16.0903 11.1874H16.1303V8.68095H10.1202C10.1987 10.3028 10.1198 25.9692 10.1198 25.9692L10.1199 25.9686Z" fill="#BECEE8"/>
</svg>
